<svg xmlns="http://www.w3.org/2000/svg" viewBox="0 0 378.9 63.1" xml:space="preserve">
  <g fill="#f6f6f6">
    <path d="M61.3 20.9c-1.3-1-2.8-1.7-4.7-2.2-1.8-.5-3.9-.8-6.2-.8-3.2 0-5.9.5-8 1.5-2.1 1-3.8 2.3-4.9 4s-1.7 3.5-1.9 5.4h10.7c.1-1 .6-1.7 1.2-2.2.7-.5 1.6-.7 2.7-.7 1 0 1.8.2 2.5.7.6.4 1 1.1 1 1.9v.1c0 .6-.2 1.1-.7 1.5s-1.3.7-2.4.9c-1.1.2-2.6.4-4.4.5-1.7.1-3.2.4-4.7.8-1.4.4-2.7 1-3.8 1.8-1.1.8-1.9 1.8-2.5 3.1s-.9 2.8-.9 4.5c0 2.1.4 3.9 1.3 5.3s2.1 2.4 3.7 3.1c1.6.7 3.4 1 5.5 1a16 16 0 0 0 3.9-.5c1.2-.3 2.2-.9 3.1-1.6.9-.7 1.7-1.7 2.3-2.9h.3v4.5h10.8V28.5c0-1.5-.3-2.9-1-4.2-.6-1.3-1.6-2.4-2.9-3.4zm-7.5 18.2c0 1-.2 1.8-.7 2.5-.5.7-1.1 1.2-1.9 1.6-.8.4-1.6.5-2.5.5-1 0-1.8-.2-2.4-.7-.6-.5-.9-1.2-.9-2.1 0-.6.1-1.1.4-1.5.3-.5.7-.8 1.3-1.2.6-.3 1.3-.5 2.2-.7.5-.1.9-.1 1.3-.2l1.2-.3c.4-.1.7-.2 1.1-.3.3-.1.7-.2 1-.4v2.8zM220.9 14.9c1.6 0 2.9-.5 4-1.6s1.7-2.3 1.7-3.7-.6-2.7-1.7-3.7-2.5-1.6-4-1.6c-1.6 0-2.9.5-4 1.6-1.1 1-1.7 2.3-1.7 3.7s.6 2.7 1.7 3.7c1.1 1.1 2.4 1.6 4 1.6z"/>
    <path d="M32.9 30c1.4-2.1 2-4.7 2-7.8 0-3.1-.7-5.7-2-7.9s-3.2-3.9-5.6-5c-2.4-1.2-5.2-1.7-8.4-1.7H.4v43h11.7V36.4h4l7.6 14.2h12.7l-8.7-16.1c2.1-1.1 3.9-2.6 5.2-4.5zm-11-4.9c-.5.8-1.3 1.3-2.2 1.6-1 .3-2.1.5-3.5.5h-4.1V16.9h4.1c1.4 0 2.5.2 3.5.6s1.7.9 2.2 1.7c.5.8.8 1.8.8 3s-.2 2.2-.8 2.9zM101.5 49.1c-1.6-.7-2.6-2.2-2.8-3.9v-.3c-.1-1.7.7-3.4 2.1-4.3l3.4-2.3h-.1l-1.7-20h-.2l-3.5 19.5h-.3l-4.3-19.5H83L78.8 38h-.3l-3.7-19.7H63.3l8.1 32.3h12.5l4.5-17.3h.3l4.5 17.3h11.4l-3.1-1.5zM176.9 29.6c-1.1-1.1-2.5-2.1-4.2-2.9-1.7-.8-3.7-1.5-6.1-2l-3.5-.8c-1-.2-1.9-.4-2.6-.7-.7-.3-1.4-.6-1.8-.9-.5-.3-.8-.7-1-1.1-.2-.4-.3-.9-.3-1.4 0-.6.2-1.2.6-1.7.4-.5.9-.9 1.7-1.2.8-.3 1.7-.4 3-.4 1.9 0 3.3.4 4.2 1.2.9.8 1.5 1.9 1.6 3.3h11.2c0-2.8-.7-5.3-2.1-7.4-1.4-2.1-3.3-3.7-5.9-4.9S166 7 162.5 7c-3.4 0-6.4.6-9 1.7-.9.4-1.7.9-2.5 1.4.2.1.3.3.4.4l.1.2c.2.2.3.4.3.6l.1.1c.1.2.2.5.3.7v.1c.1.2.1.5.1.7v.1l1.6 18.8c1.1.4 2.2.7 3.4 1l4.3.9c1.6.4 2.9.7 3.8 1.1.9.4 1.6.8 2 1.3.4.5.6 1.1.6 1.7 0 .7-.2 1.3-.7 1.9-.4.5-1.1 1-1.9 1.3-.8.3-1.9.5-3.1.5-.7 0-1.3-.1-1.9-.2-.2 1.2-1 2.3-2 3l-3.3 2.2h.1l.3 3.7c2.1.5 4.5.8 7.1.8 3.6 0 6.8-.5 9.4-1.5 2.6-1 4.6-2.5 6-4.5 1.4-2 2.1-4.4 2.1-7.2 0-1.6-.3-3.2-.8-4.5-.5-1.4-1.3-2.6-2.4-3.7zM255.7 19.6c-1.9-1.1-4-1.7-6.1-1.7-1.6 0-3 .3-4.2.8-1.2.6-2.2 1.3-3 2.2-.8.9-1.4 1.9-1.8 3h-.3v-5.6h-11.5v44.4h11.6V45.3h.2c.4 1.1 1.1 2.1 1.9 2.9.8.9 1.8 1.5 3 2s2.5.7 4 .7c2.3 0 4.4-.6 6.3-1.8 1.9-1.2 3.5-3 4.6-5.5 1.2-2.5 1.7-5.5 1.7-9.3 0-3.9-.6-7.1-1.8-9.5-1.1-2.3-2.7-4.1-4.6-5.2zm-6 18.9c-.4 1.1-1 2-1.7 2.6-.7.6-1.7.9-2.7.9-1.1 0-2-.3-2.7-.9-.8-.6-1.4-1.5-1.8-2.6-.4-1.1-.6-2.5-.6-4.1 0-1.6.2-3 .6-4.1.4-1.1 1-2 1.8-2.6.8-.6 1.7-.9 2.7-.9 1.1 0 2 .3 2.7.9.8.6 1.3 1.5 1.7 2.6s.6 2.5.6 4.1-.2 3-.6 4.1zM376.2 34.2c-1.6-1.4-4.1-2.4-7.4-3l-6.6-1.2c-1.2-.2-2.1-.5-2.5-.9-.4-.4-.6-.8-.6-1.3 0-.7.3-1.2 1-1.6.7-.4 1.6-.5 2.6-.5.8 0 1.5.1 2.1.4.6.3 1.2.6 1.6 1.1.4.5.6 1 .7 1.7h10.7c-.1-3.4-1.6-6.1-4.3-8s-6.4-2.9-11-2.9c-3.1 0-5.7.4-7.9 1.2-2.2.8-3.9 2-5.1 3.6-.6.8-1 1.6-1.3 2.5v-6.9h-5.5v-7.7h-11.6v7.7H327v7.2c-.6-1.2-1.4-2.2-2.3-3.2-1.4-1.4-3.1-2.5-5.1-3.3-2-.8-4.2-1.1-6.6-1.1-3.3 0-6.2.7-8.7 2.1-2.5 1.4-4.3 3.3-5.7 5.8-1 1.9-1.6 4-1.9 6.3-.2-2.8-.8-5.2-1.7-7.2-1.2-2.4-2.8-4.2-4.7-5.4-1.9-1.1-4-1.7-6.1-1.7-1.6 0-3 .3-4.2.8-1.2.6-2.2 1.3-3 2.2-.8.9-1.4 1.9-1.8 3h-.3v-5.6h-11.5v44.4H275V45.3h.2c.4 1.1 1.1 2.1 1.9 2.9.8.9 1.8 1.5 3 2s2.5.7 4 .7c2.3 0 4.4-.6 6.3-1.8 1.9-1.2 3.5-3 4.6-5.5.9-1.9 1.4-4.1 1.6-6.8.2 2.5.9 4.7 1.9 6.5 1.3 2.5 3.2 4.4 5.7 5.7 2.5 1.3 5.5 2 8.9 2 3 0 5.6-.5 7.8-1.4 2.2-.9 4-2.2 5.4-3.8 1.4-1.6 2.2-3.6 2.6-5.8h-10.6c-.2.6-.6 1.1-1.1 1.5-.5.4-1 .8-1.7 1-.7.2-1.4.3-2.2.3-1.1 0-2.1-.2-2.9-.7-.8-.5-1.4-1.1-1.9-1.9-.4-.8-.7-1.7-.7-2.8v-.5h21v-2.7c0-2.6-.4-4.9-1.1-6.9-.1-.3-.2-.5-.3-.8h3.5v14.6c0 2.3.4 4.1 1.3 5.6s2.3 2.6 4.1 3.3c1.8.7 4 1 6.7.8 1.3-.1 2.5-.2 3.4-.4 1-.2 1.7-.4 2.2-.6l-1.7-8.1c-.2.1-.6.1-1 .2-.5.1-.9.1-1.2.1-.5 0-.9-.1-1.2-.2-.3-.1-.6-.4-.7-.7-.2-.3-.2-.7-.2-1.1V26.7h5.2c-.1.5-.1 1.1-.1 1.7 0 2.5.8 4.6 2.4 6.2 1.6 1.6 4.1 2.7 7.4 3.3l5.7 1c1.3.2 2.2.5 2.8.9.6.4.9.9.9 1.5 0 .7-.4 1.2-1.1 1.6s-1.6.5-2.6.5c-1.3 0-2.4-.3-3.3-.8s-1.4-1.3-1.5-2.4h-11.5c.3 3.3 1.9 6 4.7 8 2.8 2 6.6 3 11.6 3 3 0 5.6-.5 8-1.4 2.3-.9 4.2-2.2 5.5-3.9 1.4-1.7 2-3.7 2-6-.1-2.4-.9-4.3-2.5-5.7zm-92 4.3c-.4 1.1-1 2-1.7 2.6-.8.6-1.7.9-2.7.9s-2-.3-2.7-.9c-.8-.6-1.4-1.5-1.8-2.6-.4-1.1-.6-2.5-.6-4.1 0-1.6.2-3 .6-4.1.4-1.1 1-2 1.8-2.6.8-.6 1.7-.9 2.7-.9s2 .3 2.7.9c.7.6 1.3 1.5 1.7 2.6.4 1.1.6 2.5.6 4.1s-.2 3-.6 4.1zm23.7-7.8c0-.9.3-1.8.7-2.5.5-.7 1.1-1.2 1.9-1.6s1.6-.6 2.6-.6 1.8.2 2.6.6c.8.4 1.4 1 1.8 1.7s.7 1.5.7 2.4h-10.3zM208.1 19.4c-1.7-1-3.7-1.6-6-1.6-2.4 0-4.4.6-6.2 1.7-1.8 1.2-3 2.8-3.7 4.8h-.3v-6.1h-11v32.3h11.6V32.4c0-1.1.2-2 .6-2.7.4-.8.9-1.4 1.6-1.8s1.5-.6 2.5-.6c1.5 0 2.6.5 3.4 1.4.8.9 1.2 2.2 1.2 3.8v18.1h11.6V30c0-2.3-.4-4.4-1.4-6.2s-2.2-3.3-3.9-4.4zM215.1 18.3h11.6v32.3h-11.6z"/>
  </g>
  <path d="m151.4 46.9 1 11.6c0 .3-.2.7-.6.7l-41.1 3.4c-.4 0-.7-.2-.7-.6l-1-11.6 1.3.6.9 10.3L151 58l-.9-10.3 1.3-.8z" fill="#f08219"/>
  <path d="M156.7 40c0-.3-.2-.6-.5-.7l-11.3-5c-.6-.3-1.2.2-1.2.8v.1c0 .3.2.6.5.7l10.1 4.4v.1l-9.2 6c-.3.2-.4.5-.4.8v.1c.1.6.8 1 1.3.6l10.3-6.8c.3-.2.4-.5.4-.8V40z" fill="#bc4417"/>
  <path d="m144.7 40.9-.1-.8c0-.3-.3-.5-.5-.5-.9 0-1.5-.2-2-.5-.5-.4-.8-1.2-.9-2.3l-.3-3.9c-.1-.9-.2-1.6-.4-2.2-.2-.6-.5-1.1-.9-1.5-.4-.4-.9-.7-1.5-.8-.5-.1-1.1-.2-1.7-.2-.3 0-.5.3-.5.6v.5c0 .3.2.5.5.5.5 0 1 .1 1.4.2.5.2.8.6 1.1 1.1.2.5.4 1.2.5 2l.4 4.5c0 .6.2 1.1.3 1.5.2.4.4.8.8 1.1.4.3.9.5 1.5.6v.2c-.6.2-1.1.5-1.4.8-.3.3-.5.7-.6 1.2-.1.5-.1 1-.1 1.5l.4 4.5c.1.8 0 1.5-.1 2s-.4.9-.9 1.2c-.3.2-.8.4-1.3.5-.3 0-.5.3-.4.6v.5c0 .3.3.5.6.5.6-.1 1.2-.2 1.7-.4.6-.3 1.1-.6 1.4-1.1.3-.4.6-1 .7-1.7.1-.7.1-1.4.1-2.3l-.3-3.9c-.1-1.1.1-1.9.5-2.4.3-.4 1-.7 1.8-.8.1-.2.3-.5.2-.8z" fill="#d9d5ca"/>
  <path d="m134.2 25.7-.9.1c-.2 0-.4.2-.4.4l-8.2 30.6c-.1.4.2.7.5.7l.9-.1c.2 0 .4-.2.4-.4l8.2-30.6c.1-.3-.2-.7-.5-.7z" fill="#bc4417"/>
  <path d="M123.4 54.4c0-.3-.2-.5-.5-.5-.5 0-1-.1-1.4-.2-.5-.2-.8-.6-1.1-1.1-.2-.5-.4-1.2-.5-2l-.4-4.5c0-.6-.2-1.1-.3-1.5-.2-.4-.4-.8-.8-1.1-.4-.3-.9-.5-1.5-.6v-.2c.6-.2 1.1-.5 1.4-.8.3-.3.5-.7.6-1.2.1-.5.1-1 .1-1.5l-.4-4.5c-.1-.8 0-1.5.1-2s.4-.9.9-1.2c.3-.2.8-.4 1.3-.5.3 0 .5-.3.4-.6v-.5c0-.3-.3-.5-.6-.5-.6.1-1.2.2-1.7.4-.6.3-1.1.6-1.4 1.1-.3.4-.6 1-.7 1.7-.1.7-.1 1.4-.1 2.3l.3 3.9c.1 1.1-.1 1.9-.5 2.4-.3.4-1 .7-1.8.8-.3 0-.5.3-.4.6l.1.8c0 .3.3.5.5.5.9 0 1.5.2 1.9.5.5.4.8 1.2.9 2.3l.3 3.9c.1.9.2 1.6.4 2.2.2.6.5 1.1.9 1.5.4.4.9.7 1.5.8.5.1 1.1.2 1.7.2.3 0 .5-.3.5-.6l.3-.3z" fill="#d9d5ca"/>
  <path d="M115.5 49.7c0-.3-.2-.6-.5-.7l-10.1-4.4v-.1l9.2-6c.3-.2.4-.5.4-.8v-.1c-.1-.6-.8-1-1.3-.6l-10.3 6.9c-.2.2-.4.5-.4.8v.3c0 .3.2.6.5.7l11.3 5.1c.6.3 1.2-.2 1.2-.8v-.3z" fill="#bc4417"/>
  <g>
    <path d="M113.9 23.7c0-.5-.4-.8-.8-.8l-1.9.2c-.4 0-.7.4-.7.8v.1c0 .4.4.7.8.7l1.9-.2c.4 0 .8-.4.7-.8z" fill="#f08219"/>
    <path d="M124.8 22.8c0-.5-.4-.8-.8-.8l-8.6.7c-.4 0-.7.4-.7.8v.1c0 .4.4.7.8.7l8.6-.7c.4 0 .7-.4.7-.8z" fill="#bc4417"/>
    <path d="M127.2 22.6c0-.5-.4-.8-.8-.8h-.1c-.4 0-.7.4-.7.8v.1c0 .4.4.7.8.7h.1c.4 0 .7-.4.7-.8z" fill="#f08219"/>
    <path d="M133.3 22.1c0-.5-.4-.8-.8-.8l-3.7.3c-.4 0-.7.4-.7.8v.1c0 .4.4.7.8.7l3.7-.3c.4 0 .8-.4.7-.8z" fill="#bc4417"/>
    <path d="M145.1 21.1c0-.5-.4-.8-.8-.8l-9.5.8c-.4 0-.7.4-.7.8v.1c0 .4.4.7.8.7l9.5-.8c.4 0 .7-.4.7-.8zM136.9 17.8c0-.5-.4-.8-.8-.8l-9.3.8c-.4 0-.7.4-.7.8v.1c0 .4.4.7.8.7l9.3-.8c.4 0 .7-.3.7-.8z" fill="#f08219"/>
    <path d="M125.3 18.8c0-.5-.4-.8-.8-.8l-3.3.3c-.4 0-.7.4-.7.8v.1c0 .4.4.7.8.7l3.3-.3c.5 0 .8-.4.7-.8z" fill="#bc4417"/>
    <path d="M119.7 19.3c0-.5-.4-.8-.8-.8l-8 .7c-.4 0-.7.4-.7.8v.1c0 .4.4.7.8.7l8-.7c.4 0 .7-.4.7-.8zM117.3 11.6c0-.5-.4-.8-.8-.8l-6.2.5c-.4 0-.7.4-.7.8v.1c0 .4.4.7.8.7l6.2-.5c.4 0 .7-.4.7-.8z" fill="#f08219"/>
    <path d="M125.9 10.9c0-.5-.4-.8-.8-.8l-6.2.5c-.4 0-.7.4-.7.8v.1c0 .4.4.7.8.7l6.2-.5c.4 0 .7-.4.7-.8z" fill="#bc4417"/>
    <path d="M130.3 6.6c0-.5-.4-.8-.8-.8L110 7.4c-.4 0-.7.4-.7.8v.1c0 .4.4.7.8.7l19.5-1.6c.4 0 .7-.4.7-.8zM111.5 16c0-.5-.4-.8-.8-.8h-.1c-.4 0-.7.4-.7.8v.1c0 .4.4.7.8.7h.1c.4 0 .7-.4.7-.8z" fill="#f08219"/>
    <path d="M122.3 15.1c0-.5-.4-.8-.8-.8l-8.6.7c-.4 0-.7.4-.7.8v.1c0 .4.4.7.8.7l8.6-.7c.4 0 .8-.4.7-.8z" fill="#bc4417"/>
    <path d="M128 14.6c0-.5-.4-.8-.8-.8l-3.4.3c-.4 0-.7.4-.7.8v.1c0 .4.4.7.8.7l3.4-.3c.5 0 .8-.4.7-.8zM132.2 14.3c0-.5-.4-.8-.8-.8l-2.1.2c-.4 0-.7.4-.7.8v.1c0 .4.4.7.8.7l2.1-.2c.4 0 .7-.4.7-.8z" fill="#f08219"/>
  </g>
  <path d="M148.5 13.3V13s0-.1-.1-.1L133.5.4s-.1 0-.1-.1H133.1l-27.4 2.3c-.4 0-.6.3-.6.7L108 38l1.2-.8-2.8-33.4 26.2-2.2 1.1 13c0 .4.3.6.7.6l13-1.1 1.7 19.8 1.3.6-1.9-21.2zm-13.8.7-1-11.5 6.2 5.3 6.2 5.3-11.4.9z" fill="#f08219"/>
</svg>
